<mxfile host="Electron" agent="Mozilla/5.0 (X11; Linux x86_64) AppleWebKit/537.36 (KHTML, like Gecko) draw.io/24.7.17 Chrome/128.0.6613.186 Electron/32.2.5 Safari/537.36" version="24.7.17">
  <diagram name="Page-1" id="IC4A0gcLXCVCcbNHgde3">
    <mxGraphModel dx="622" dy="811" grid="1" gridSize="10" guides="1" tooltips="1" connect="1" arrows="1" fold="1" page="1" pageScale="1" pageWidth="850" pageHeight="1100" math="0" shadow="0">
      <root>
        <mxCell id="0" />
        <mxCell id="1" parent="0" />
        <mxCell id="gISr-zMXu4UXKBRazl1F-4" style="edgeStyle=orthogonalEdgeStyle;rounded=0;orthogonalLoop=1;jettySize=auto;html=1;entryX=0.5;entryY=0;entryDx=0;entryDy=0;" edge="1" parent="1" source="gISr-zMXu4UXKBRazl1F-1" target="gISr-zMXu4UXKBRazl1F-3">
          <mxGeometry relative="1" as="geometry" />
        </mxCell>
        <mxCell id="gISr-zMXu4UXKBRazl1F-1" value="start" style="ellipse;whiteSpace=wrap;html=1;" vertex="1" parent="1">
          <mxGeometry x="260" y="20" width="120" height="80" as="geometry" />
        </mxCell>
        <mxCell id="gISr-zMXu4UXKBRazl1F-6" style="edgeStyle=orthogonalEdgeStyle;rounded=0;orthogonalLoop=1;jettySize=auto;html=1;entryX=0.5;entryY=0;entryDx=0;entryDy=0;" edge="1" parent="1" source="gISr-zMXu4UXKBRazl1F-3" target="gISr-zMXu4UXKBRazl1F-5">
          <mxGeometry relative="1" as="geometry" />
        </mxCell>
        <mxCell id="gISr-zMXu4UXKBRazl1F-3" value="float a, b, c" style="rounded=1;whiteSpace=wrap;html=1;" vertex="1" parent="1">
          <mxGeometry x="260" y="160" width="120" height="60" as="geometry" />
        </mxCell>
        <mxCell id="gISr-zMXu4UXKBRazl1F-10" value="" style="edgeStyle=orthogonalEdgeStyle;rounded=0;orthogonalLoop=1;jettySize=auto;html=1;" edge="1" parent="1" source="gISr-zMXu4UXKBRazl1F-5" target="gISr-zMXu4UXKBRazl1F-7">
          <mxGeometry relative="1" as="geometry" />
        </mxCell>
        <mxCell id="gISr-zMXu4UXKBRazl1F-5" value="print some info about what to do" style="shape=parallelogram;perimeter=parallelogramPerimeter;whiteSpace=wrap;html=1;fixedSize=1;" vertex="1" parent="1">
          <mxGeometry x="260" y="280" width="120" height="60" as="geometry" />
        </mxCell>
        <mxCell id="gISr-zMXu4UXKBRazl1F-12" value="" style="edgeStyle=orthogonalEdgeStyle;rounded=0;orthogonalLoop=1;jettySize=auto;html=1;" edge="1" parent="1" source="gISr-zMXu4UXKBRazl1F-7" target="gISr-zMXu4UXKBRazl1F-11">
          <mxGeometry relative="1" as="geometry" />
        </mxCell>
        <mxCell id="gISr-zMXu4UXKBRazl1F-7" value="get a, b, c from terminal" style="shape=parallelogram;perimeter=parallelogramPerimeter;whiteSpace=wrap;html=1;fixedSize=1;" vertex="1" parent="1">
          <mxGeometry x="260" y="400" width="120" height="60" as="geometry" />
        </mxCell>
        <mxCell id="gISr-zMXu4UXKBRazl1F-14" value="" style="edgeStyle=orthogonalEdgeStyle;rounded=0;orthogonalLoop=1;jettySize=auto;html=1;" edge="1" parent="1" source="gISr-zMXu4UXKBRazl1F-11" target="gISr-zMXu4UXKBRazl1F-13">
          <mxGeometry relative="1" as="geometry" />
        </mxCell>
        <mxCell id="gISr-zMXu4UXKBRazl1F-11" value="print a * b * c" style="shape=parallelogram;perimeter=parallelogramPerimeter;whiteSpace=wrap;html=1;fixedSize=1;" vertex="1" parent="1">
          <mxGeometry x="260" y="520" width="120" height="60" as="geometry" />
        </mxCell>
        <mxCell id="gISr-zMXu4UXKBRazl1F-32" value="" style="edgeStyle=orthogonalEdgeStyle;rounded=0;orthogonalLoop=1;jettySize=auto;html=1;" edge="1" parent="1" source="gISr-zMXu4UXKBRazl1F-13" target="gISr-zMXu4UXKBRazl1F-31">
          <mxGeometry relative="1" as="geometry" />
        </mxCell>
        <mxCell id="gISr-zMXu4UXKBRazl1F-13" value="groceryCost()" style="shape=process;whiteSpace=wrap;html=1;backgroundOutline=1;" vertex="1" parent="1">
          <mxGeometry x="260" y="640" width="120" height="60" as="geometry" />
        </mxCell>
        <mxCell id="gISr-zMXu4UXKBRazl1F-18" value="" style="edgeStyle=orthogonalEdgeStyle;rounded=0;orthogonalLoop=1;jettySize=auto;html=1;" edge="1" parent="1" source="gISr-zMXu4UXKBRazl1F-15" target="gISr-zMXu4UXKBRazl1F-17">
          <mxGeometry relative="1" as="geometry" />
        </mxCell>
        <mxCell id="gISr-zMXu4UXKBRazl1F-15" value="groceryCost" style="ellipse;whiteSpace=wrap;html=1;" vertex="1" parent="1">
          <mxGeometry x="520" y="20" width="120" height="80" as="geometry" />
        </mxCell>
        <mxCell id="gISr-zMXu4UXKBRazl1F-20" value="" style="edgeStyle=orthogonalEdgeStyle;rounded=0;orthogonalLoop=1;jettySize=auto;html=1;" edge="1" parent="1" source="gISr-zMXu4UXKBRazl1F-17" target="gISr-zMXu4UXKBRazl1F-19">
          <mxGeometry relative="1" as="geometry" />
        </mxCell>
        <mxCell id="gISr-zMXu4UXKBRazl1F-17" value="double tom, cucum, dill" style="rounded=1;whiteSpace=wrap;html=1;" vertex="1" parent="1">
          <mxGeometry x="520" y="160" width="120" height="60" as="geometry" />
        </mxCell>
        <mxCell id="gISr-zMXu4UXKBRazl1F-24" value="" style="edgeStyle=orthogonalEdgeStyle;rounded=0;orthogonalLoop=1;jettySize=auto;html=1;" edge="1" parent="1" source="gISr-zMXu4UXKBRazl1F-19" target="gISr-zMXu4UXKBRazl1F-23">
          <mxGeometry relative="1" as="geometry" />
        </mxCell>
        <mxCell id="gISr-zMXu4UXKBRazl1F-19" value="print &quot;enter cost of *name of the item*&quot; and get the cost of that item" style="shape=parallelogram;perimeter=parallelogramPerimeter;whiteSpace=wrap;html=1;fixedSize=1;" vertex="1" parent="1">
          <mxGeometry x="470" y="280" width="220" height="60" as="geometry" />
        </mxCell>
        <mxCell id="gISr-zMXu4UXKBRazl1F-27" value="" style="edgeStyle=orthogonalEdgeStyle;rounded=0;orthogonalLoop=1;jettySize=auto;html=1;" edge="1" parent="1" source="gISr-zMXu4UXKBRazl1F-21" target="gISr-zMXu4UXKBRazl1F-26">
          <mxGeometry relative="1" as="geometry" />
        </mxCell>
        <mxCell id="gISr-zMXu4UXKBRazl1F-21" value="print &quot;how many of *name of the item*&quot; and get the amount of that item" style="shape=parallelogram;perimeter=parallelogramPerimeter;whiteSpace=wrap;html=1;fixedSize=1;" vertex="1" parent="1">
          <mxGeometry x="470" y="520" width="220" height="60" as="geometry" />
        </mxCell>
        <mxCell id="gISr-zMXu4UXKBRazl1F-25" value="" style="edgeStyle=orthogonalEdgeStyle;rounded=0;orthogonalLoop=1;jettySize=auto;html=1;" edge="1" parent="1" source="gISr-zMXu4UXKBRazl1F-23" target="gISr-zMXu4UXKBRazl1F-21">
          <mxGeometry relative="1" as="geometry" />
        </mxCell>
        <mxCell id="gISr-zMXu4UXKBRazl1F-23" value="int t_a, c_a, d_a" style="rounded=1;whiteSpace=wrap;html=1;" vertex="1" parent="1">
          <mxGeometry x="520" y="400" width="120" height="60" as="geometry" />
        </mxCell>
        <mxCell id="gISr-zMXu4UXKBRazl1F-30" value="" style="edgeStyle=orthogonalEdgeStyle;rounded=0;orthogonalLoop=1;jettySize=auto;html=1;" edge="1" parent="1" source="gISr-zMXu4UXKBRazl1F-26" target="gISr-zMXu4UXKBRazl1F-28">
          <mxGeometry relative="1" as="geometry" />
        </mxCell>
        <mxCell id="gISr-zMXu4UXKBRazl1F-26" value="print &quot;you need to pay: &quot; and tom*t_a + cucum*c_a + dill*d_a" style="shape=parallelogram;perimeter=parallelogramPerimeter;whiteSpace=wrap;html=1;fixedSize=1;" vertex="1" parent="1">
          <mxGeometry x="410" y="640" width="340" height="60" as="geometry" />
        </mxCell>
        <mxCell id="gISr-zMXu4UXKBRazl1F-28" value="end" style="ellipse;whiteSpace=wrap;html=1;" vertex="1" parent="1">
          <mxGeometry x="520" y="760" width="120" height="80" as="geometry" />
        </mxCell>
        <mxCell id="gISr-zMXu4UXKBRazl1F-31" value="end" style="ellipse;whiteSpace=wrap;html=1;" vertex="1" parent="1">
          <mxGeometry x="260" y="760" width="120" height="80" as="geometry" />
        </mxCell>
      </root>
    </mxGraphModel>
  </diagram>
</mxfile>
